<mxfile host="app.diagrams.net" agent="Mozilla/5.0 (Windows NT 10.0; Win64; x64) AppleWebKit/537.36 (KHTML, like Gecko) Chrome/134.0.0.0 Safari/537.36 Edg/134.0.0.0" version="26.1.0">
  <diagram id="C5RBs43oDa-KdzZeNtuy" name="Page-1">
    <mxGraphModel dx="1042" dy="531" grid="1" gridSize="10" guides="1" tooltips="1" connect="1" arrows="1" fold="1" page="1" pageScale="1" pageWidth="827" pageHeight="1169" math="0" shadow="0">
      <root>
        <mxCell id="WIyWlLk6GJQsqaUBKTNV-0" />
        <mxCell id="WIyWlLk6GJQsqaUBKTNV-1" parent="WIyWlLk6GJQsqaUBKTNV-0" />
        <mxCell id="kbXyXDnE3KV20WIKsyNc-3" style="edgeStyle=orthogonalEdgeStyle;rounded=0;orthogonalLoop=1;jettySize=auto;html=1;" edge="1" parent="WIyWlLk6GJQsqaUBKTNV-1" source="kbXyXDnE3KV20WIKsyNc-0">
          <mxGeometry relative="1" as="geometry">
            <mxPoint x="215" y="170" as="targetPoint" />
          </mxGeometry>
        </mxCell>
        <mxCell id="kbXyXDnE3KV20WIKsyNc-0" value="INICIO" style="ellipse;whiteSpace=wrap;html=1;aspect=fixed;fillColor=#008a00;fontColor=#ffffff;strokeColor=#005700;" vertex="1" parent="WIyWlLk6GJQsqaUBKTNV-1">
          <mxGeometry x="180" y="30" width="70" height="70" as="geometry" />
        </mxCell>
        <mxCell id="kbXyXDnE3KV20WIKsyNc-8" style="edgeStyle=orthogonalEdgeStyle;rounded=0;orthogonalLoop=1;jettySize=auto;html=1;exitX=0.5;exitY=1;exitDx=0;exitDy=0;" edge="1" parent="WIyWlLk6GJQsqaUBKTNV-1" source="kbXyXDnE3KV20WIKsyNc-4" target="kbXyXDnE3KV20WIKsyNc-6">
          <mxGeometry relative="1" as="geometry" />
        </mxCell>
        <mxCell id="kbXyXDnE3KV20WIKsyNc-4" value="mostrar mensaje: &quot;por favor, ingrese la edad del cliente: &quot;" style="shape=parallelogram;perimeter=parallelogramPerimeter;whiteSpace=wrap;html=1;fixedSize=1;fillColor=#1ba1e2;fontColor=#ffffff;strokeColor=#006EAF;" vertex="1" parent="WIyWlLk6GJQsqaUBKTNV-1">
          <mxGeometry x="150" y="140" width="140" height="80" as="geometry" />
        </mxCell>
        <mxCell id="kbXyXDnE3KV20WIKsyNc-11" style="edgeStyle=orthogonalEdgeStyle;rounded=0;orthogonalLoop=1;jettySize=auto;html=1;exitX=1;exitY=0.5;exitDx=0;exitDy=0;" edge="1" parent="WIyWlLk6GJQsqaUBKTNV-1" source="kbXyXDnE3KV20WIKsyNc-6" target="kbXyXDnE3KV20WIKsyNc-10">
          <mxGeometry relative="1" as="geometry" />
        </mxCell>
        <mxCell id="kbXyXDnE3KV20WIKsyNc-16" style="edgeStyle=orthogonalEdgeStyle;rounded=0;orthogonalLoop=1;jettySize=auto;html=1;exitX=0.5;exitY=1;exitDx=0;exitDy=0;entryX=0.5;entryY=0;entryDx=0;entryDy=0;" edge="1" parent="WIyWlLk6GJQsqaUBKTNV-1" source="kbXyXDnE3KV20WIKsyNc-6" target="kbXyXDnE3KV20WIKsyNc-14">
          <mxGeometry relative="1" as="geometry" />
        </mxCell>
        <mxCell id="kbXyXDnE3KV20WIKsyNc-6" value="si edad &amp;gt;= 18" style="rhombus;whiteSpace=wrap;html=1;fillColor=#d5e8d4;strokeColor=#82b366;" vertex="1" parent="WIyWlLk6GJQsqaUBKTNV-1">
          <mxGeometry x="180" y="260" width="80" height="80" as="geometry" />
        </mxCell>
        <mxCell id="kbXyXDnE3KV20WIKsyNc-26" style="edgeStyle=orthogonalEdgeStyle;rounded=0;orthogonalLoop=1;jettySize=auto;html=1;entryX=0.5;entryY=0;entryDx=0;entryDy=0;" edge="1" parent="WIyWlLk6GJQsqaUBKTNV-1" source="kbXyXDnE3KV20WIKsyNc-10" target="kbXyXDnE3KV20WIKsyNc-18">
          <mxGeometry relative="1" as="geometry">
            <Array as="points">
              <mxPoint x="414" y="490" />
              <mxPoint x="220" y="490" />
            </Array>
          </mxGeometry>
        </mxCell>
        <mxCell id="kbXyXDnE3KV20WIKsyNc-10" value="asignarle a la variable permitido que sea verdadero" style="whiteSpace=wrap;html=1;aspect=fixed;fillColor=#f8cecc;strokeColor=#b85450;" vertex="1" parent="WIyWlLk6GJQsqaUBKTNV-1">
          <mxGeometry x="364" y="250" width="100" height="100" as="geometry" />
        </mxCell>
        <mxCell id="kbXyXDnE3KV20WIKsyNc-13" value="si es verdadero" style="text;html=1;align=center;verticalAlign=middle;resizable=0;points=[];autosize=1;strokeColor=none;fillColor=none;" vertex="1" parent="WIyWlLk6GJQsqaUBKTNV-1">
          <mxGeometry x="260" y="270" width="110" height="30" as="geometry" />
        </mxCell>
        <mxCell id="kbXyXDnE3KV20WIKsyNc-19" style="edgeStyle=orthogonalEdgeStyle;rounded=0;orthogonalLoop=1;jettySize=auto;html=1;entryX=0.5;entryY=0;entryDx=0;entryDy=0;" edge="1" parent="WIyWlLk6GJQsqaUBKTNV-1" source="kbXyXDnE3KV20WIKsyNc-14" target="kbXyXDnE3KV20WIKsyNc-18">
          <mxGeometry relative="1" as="geometry" />
        </mxCell>
        <mxCell id="kbXyXDnE3KV20WIKsyNc-14" value="&lt;div&gt;&amp;nbsp; &amp;nbsp;asignarle a la variable permitido que sea falso&lt;/div&gt;" style="whiteSpace=wrap;html=1;aspect=fixed;fillColor=#d80073;fontColor=#ffffff;strokeColor=#A50040;" vertex="1" parent="WIyWlLk6GJQsqaUBKTNV-1">
          <mxGeometry x="170" y="390" width="90" height="90" as="geometry" />
        </mxCell>
        <mxCell id="kbXyXDnE3KV20WIKsyNc-17" value="si es falso" style="text;html=1;align=center;verticalAlign=middle;resizable=0;points=[];autosize=1;strokeColor=none;fillColor=none;" vertex="1" parent="WIyWlLk6GJQsqaUBKTNV-1">
          <mxGeometry x="235" y="340" width="80" height="30" as="geometry" />
        </mxCell>
        <mxCell id="kbXyXDnE3KV20WIKsyNc-21" style="edgeStyle=orthogonalEdgeStyle;rounded=0;orthogonalLoop=1;jettySize=auto;html=1;entryX=0;entryY=0.5;entryDx=0;entryDy=0;" edge="1" parent="WIyWlLk6GJQsqaUBKTNV-1" source="kbXyXDnE3KV20WIKsyNc-18" target="kbXyXDnE3KV20WIKsyNc-20">
          <mxGeometry relative="1" as="geometry" />
        </mxCell>
        <mxCell id="kbXyXDnE3KV20WIKsyNc-23" style="edgeStyle=orthogonalEdgeStyle;rounded=0;orthogonalLoop=1;jettySize=auto;html=1;entryX=0.5;entryY=0;entryDx=0;entryDy=0;" edge="1" parent="WIyWlLk6GJQsqaUBKTNV-1" source="kbXyXDnE3KV20WIKsyNc-18" target="kbXyXDnE3KV20WIKsyNc-22">
          <mxGeometry relative="1" as="geometry" />
        </mxCell>
        <mxCell id="kbXyXDnE3KV20WIKsyNc-18" value="esta permitido?" style="rhombus;whiteSpace=wrap;html=1;fillColor=#d5e8d4;strokeColor=#82b366;" vertex="1" parent="WIyWlLk6GJQsqaUBKTNV-1">
          <mxGeometry x="180" y="530" width="80" height="80" as="geometry" />
        </mxCell>
        <mxCell id="kbXyXDnE3KV20WIKsyNc-20" value="&lt;div&gt;&amp;nbsp; &amp;nbsp; mostrar el mensaje: &quot;puedes ingresar a la discoteca&quot;&lt;/div&gt;" style="shape=parallelogram;perimeter=parallelogramPerimeter;whiteSpace=wrap;html=1;fixedSize=1;fillColor=#1ba1e2;fontColor=#ffffff;strokeColor=#006EAF;" vertex="1" parent="WIyWlLk6GJQsqaUBKTNV-1">
          <mxGeometry x="344" y="520" width="140" height="80" as="geometry" />
        </mxCell>
        <mxCell id="kbXyXDnE3KV20WIKsyNc-28" style="edgeStyle=orthogonalEdgeStyle;rounded=0;orthogonalLoop=1;jettySize=auto;html=1;entryX=0.5;entryY=0;entryDx=0;entryDy=0;" edge="1" parent="WIyWlLk6GJQsqaUBKTNV-1" source="kbXyXDnE3KV20WIKsyNc-22" target="kbXyXDnE3KV20WIKsyNc-27">
          <mxGeometry relative="1" as="geometry" />
        </mxCell>
        <mxCell id="kbXyXDnE3KV20WIKsyNc-22" value="&lt;div&gt;&amp;nbsp; &amp;nbsp; mostrar mensaje &quot;lo sentimos mucho, no puede ingresar a la discoteca siendo menor de edad&quot;&lt;/div&gt;" style="shape=parallelogram;perimeter=parallelogramPerimeter;whiteSpace=wrap;html=1;fixedSize=1;fillColor=#1ba1e2;fontColor=#ffffff;strokeColor=#006EAF;" vertex="1" parent="WIyWlLk6GJQsqaUBKTNV-1">
          <mxGeometry x="150" y="650" width="140" height="80" as="geometry" />
        </mxCell>
        <mxCell id="kbXyXDnE3KV20WIKsyNc-27" value="fin" style="ellipse;whiteSpace=wrap;html=1;aspect=fixed;fillColor=#008a00;fontColor=#ffffff;strokeColor=#005700;" vertex="1" parent="WIyWlLk6GJQsqaUBKTNV-1">
          <mxGeometry x="180" y="780" width="70" height="70" as="geometry" />
        </mxCell>
        <mxCell id="kbXyXDnE3KV20WIKsyNc-29" style="edgeStyle=orthogonalEdgeStyle;rounded=0;orthogonalLoop=1;jettySize=auto;html=1;entryX=1;entryY=0.714;entryDx=0;entryDy=0;entryPerimeter=0;" edge="1" parent="WIyWlLk6GJQsqaUBKTNV-1" source="kbXyXDnE3KV20WIKsyNc-20" target="kbXyXDnE3KV20WIKsyNc-27">
          <mxGeometry relative="1" as="geometry">
            <Array as="points">
              <mxPoint x="414" y="790" />
              <mxPoint x="297" y="790" />
              <mxPoint x="297" y="830" />
            </Array>
          </mxGeometry>
        </mxCell>
      </root>
    </mxGraphModel>
  </diagram>
</mxfile>
